<mxfile host="app.diagrams.net" modified="2023-05-03T01:14:31.152Z" agent="Mozilla/5.0 (Windows NT 10.0; Win64; x64) AppleWebKit/537.36 (KHTML, like Gecko) Chrome/112.0.0.0 Safari/537.36" etag="Z8VniUQ9dO0Wsa2M6CSW" version="21.1.9" type="github">
  <diagram name="Página-1" id="xMqQZsLP8ieh_yZpMVl1">
    <mxGraphModel dx="880" dy="484" grid="1" gridSize="10" guides="1" tooltips="1" connect="1" arrows="1" fold="1" page="1" pageScale="1" pageWidth="827" pageHeight="1169" math="0" shadow="0">
      <root>
        <mxCell id="0" />
        <mxCell id="1" parent="0" />
        <mxCell id="fBph0RA3zfgHHDGqwz30-1" value="Cadastrar Participante" style="ellipse;whiteSpace=wrap;html=1;" vertex="1" parent="1">
          <mxGeometry x="140" y="100" width="120" height="80" as="geometry" />
        </mxCell>
        <mxCell id="fBph0RA3zfgHHDGqwz30-2" value="Efetuar Login" style="ellipse;whiteSpace=wrap;html=1;" vertex="1" parent="1">
          <mxGeometry x="150" y="200" width="120" height="80" as="geometry" />
        </mxCell>
        <mxCell id="fBph0RA3zfgHHDGqwz30-3" value="Ofertar Lance" style="ellipse;whiteSpace=wrap;html=1;" vertex="1" parent="1">
          <mxGeometry x="294" y="250" width="120" height="80" as="geometry" />
        </mxCell>
        <mxCell id="fBph0RA3zfgHHDGqwz30-4" value="Cliente" style="shape=umlActor;verticalLabelPosition=bottom;verticalAlign=top;html=1;outlineConnect=0;" vertex="1" parent="1">
          <mxGeometry x="20" y="230" width="30" height="60" as="geometry" />
        </mxCell>
        <mxCell id="fBph0RA3zfgHHDGqwz30-5" value="Cadastrar Itens" style="ellipse;whiteSpace=wrap;html=1;" vertex="1" parent="1">
          <mxGeometry x="440" y="100" width="120" height="80" as="geometry" />
        </mxCell>
        <mxCell id="fBph0RA3zfgHHDGqwz30-6" value="Cadastrar Leilão" style="ellipse;whiteSpace=wrap;html=1;" vertex="1" parent="1">
          <mxGeometry x="440" y="200" width="120" height="80" as="geometry" />
        </mxCell>
        <mxCell id="fBph0RA3zfgHHDGqwz30-7" value="Leiloeiro" style="shape=umlActor;verticalLabelPosition=bottom;verticalAlign=top;html=1;outlineConnect=0;" vertex="1" parent="1">
          <mxGeometry x="670" y="230" width="30" height="60" as="geometry" />
        </mxCell>
        <mxCell id="fBph0RA3zfgHHDGqwz30-8" value="" style="endArrow=classic;html=1;rounded=0;exitX=1;exitY=0.3333333333333333;exitDx=0;exitDy=0;exitPerimeter=0;entryX=0.058;entryY=0.788;entryDx=0;entryDy=0;entryPerimeter=0;" edge="1" parent="1" source="fBph0RA3zfgHHDGqwz30-4" target="fBph0RA3zfgHHDGqwz30-1">
          <mxGeometry width="50" height="50" relative="1" as="geometry">
            <mxPoint x="390" y="270" as="sourcePoint" />
            <mxPoint x="440" y="220" as="targetPoint" />
          </mxGeometry>
        </mxCell>
        <mxCell id="fBph0RA3zfgHHDGqwz30-9" value="" style="endArrow=classic;html=1;rounded=0;entryX=0;entryY=0.5;entryDx=0;entryDy=0;" edge="1" parent="1" source="fBph0RA3zfgHHDGqwz30-4" target="fBph0RA3zfgHHDGqwz30-2">
          <mxGeometry width="50" height="50" relative="1" as="geometry">
            <mxPoint x="390" y="270" as="sourcePoint" />
            <mxPoint x="440" y="220" as="targetPoint" />
          </mxGeometry>
        </mxCell>
        <mxCell id="fBph0RA3zfgHHDGqwz30-10" value="" style="endArrow=classic;html=1;rounded=0;exitX=0;exitY=0.3333333333333333;exitDx=0;exitDy=0;exitPerimeter=0;entryX=1;entryY=0.5;entryDx=0;entryDy=0;" edge="1" parent="1" source="fBph0RA3zfgHHDGqwz30-7" target="fBph0RA3zfgHHDGqwz30-6">
          <mxGeometry width="50" height="50" relative="1" as="geometry">
            <mxPoint x="390" y="270" as="sourcePoint" />
            <mxPoint x="440" y="220" as="targetPoint" />
          </mxGeometry>
        </mxCell>
        <mxCell id="fBph0RA3zfgHHDGqwz30-11" value="" style="endArrow=classic;html=1;rounded=0;exitX=0;exitY=0.3333333333333333;exitDx=0;exitDy=0;exitPerimeter=0;entryX=0.992;entryY=0.688;entryDx=0;entryDy=0;entryPerimeter=0;" edge="1" parent="1" source="fBph0RA3zfgHHDGqwz30-7" target="fBph0RA3zfgHHDGqwz30-5">
          <mxGeometry width="50" height="50" relative="1" as="geometry">
            <mxPoint x="390" y="270" as="sourcePoint" />
            <mxPoint x="440" y="220" as="targetPoint" />
          </mxGeometry>
        </mxCell>
      </root>
    </mxGraphModel>
  </diagram>
</mxfile>
